<?xml version="1.0" encoding="UTF-8"?>
<svg width="630px" height="98px" viewBox="0 0 630 98" version="1.1" xmlns="http://www.w3.org/2000/svg" xmlns:xlink="http://www.w3.org/1999/xlink">
    <!-- Generator: Sketch 42 (36781) - http://www.bohemiancoding.com/sketch -->
    <title>MM@2x</title>
    <desc>Created with Sketch.</desc>
    <defs></defs>
    <g id="Symbols" stroke="none" stroke-width="1" fill="none" fill-rule="evenodd">
        <g id="Make&amp;Model" fill-rule="nonzero" fill="#131014">
            <g id="MM">
                <polygon id="Shape" points="0 96.5 0 1.3 17.2 1.3 37.1 41.4 55.4 1.3 72.5 1.3 72.5 96.5 53.6 96.5 53.6 44 37 79.1 36.3 79.1 19 44 19 96.5"></polygon>
                <path d="M96.5,96.5 L76.7,96.5 L100.1,1.3 L118.2,1.3 L143.7,96.5 L122.4,96.5 L120,86.5 L98.5,86.5 L96.5,96.5 Z M108.7,35.8 L101.9,69.4 L116.2,69.4 L108.8,35.8 L108.7,35.8 L108.7,35.8 Z" id="Shape"></path>
                <polygon id="Shape" points="205.3 1.3 183 51.5 206 96.5 183.6 96.5 165.5 55.6 165.5 96.5 146.5 96.5 146.5 1.3 165.5 1.3 165.5 46.7 185 1.3"></polygon>
                <polygon id="Shape" points="210 1.3 252.7 1.3 252.7 18.4 229 18.4 229 38.7 253 38.7 253 55.8 229 55.8 229 79.5 254.7 79.5 254.7 96.6 210 96.6"></polygon>
                <path d="M297.2,34.7 C300.4,32.8 301,30.8 301,28.8 C301,25.2 298.9,22.1 294.8,22.1 C291.5,22.1 288.4,24.2 288.4,29.9 C288.4,34.3 289.7,37.5 292.6,41.8 L308.6,66.5 C309.7,62.7 310.2,58.1 310.2,52.7 L326,52.7 C326,62.5 323.3,72.5 317.9,80.6 L328.3,96.6 L307.8,96.6 L305.1,92.8 C299.5,96.1 292.8,97.9 285,97.9 C269.4,97.9 258.3,87.3 258.3,71.9 C258.3,59.4 265.6,51.2 274.3,45.9 C271.6,40.1 270.2,34.3 270.2,28.8 C270.2,17.8 277.5,6.4 294.3,6.4 C311.8,6.4 317.5,18.4 317.5,27.4 C317.5,35.6 312.6,41.6 303.3,45.4 L297.2,34.7 Z M288.8,82.2 C291.7,82.2 294.5,81.8 297,80.9 L282.6,59.7 C279.2,62.5 276.9,66.2 276.9,70.7 C276.9,76.8 281.5,82.2 288.8,82.2 Z" id="Shape"></path>
                <polygon id="Shape" points="333.9 96.5 333.9 1.3 351.1 1.3 371 41.5 389.3 1.4 406.4 1.4 406.4 96.6 387.5 96.6 387.5 44 370.9 79.1 370.2 79.1 353 44 353 96.5"></polygon>
                <path d="M471.6,48.9 C471.6,82.3 459.7,97.9 440.8,97.9 C421.9,97.9 411.2,82.1 411.2,49.7 C411.2,17.6 421.9,0 441.3,0 C459.8,0 471.6,15.8 471.6,48.9 Z M430.7,48.8 C430.7,73.9 435.2,80.8 441.3,80.8 C447.5,80.8 452.1,73.8 452.1,48.7 C452.1,23.1 447.2,17.2 441.3,17.2 C435.4,17.1 430.7,23 430.7,48.8 Z" id="Shape"></path>
                <path d="M476.2,1.3 L497.3,1.3 C520.7,1.3 535.4,18 535.4,48.5 C535.4,77.9 521.9,96.5 497.9,96.5 L476.2,96.5 L476.2,1.3 Z M495.2,17.3 L495.2,80.4 C509.4,80.4 515.8,67.5 515.8,48.9 C515.9,30.7 509.8,17.3 495.2,17.3 Z" id="Shape"></path>
                <polygon id="Shape" points="541 1.3 583.7 1.3 583.7 18.4 560 18.4 560 38.7 584 38.7 584 55.8 560 55.8 560 79.5 585.7 79.5 585.7 96.6 541 96.6"></polygon>
                <polygon id="Shape" points="591.8 1.3 610.8 1.3 610.8 79.4 629.6 79.4 629.6 96.5 591.8 96.5"></polygon>
            </g>
        </g>
    </g>
</svg>