<?xml version="1.0" encoding="UTF-8"?>
<svg width="207px" height="39px" viewBox="0 0 207 39" version="1.1" xmlns="http://www.w3.org/2000/svg" xmlns:xlink="http://www.w3.org/1999/xlink">
    <!-- Generator: Sketch 42 (36781) - http://www.bohemiancoding.com/sketch -->
    <title>nbhoodie_logo</title>
    <desc>Created with Sketch.</desc>
    <defs></defs>
    <g id="Symbols" stroke="none" stroke-width="1" fill="none" fill-rule="evenodd">
        <g id="Neighbourhoodie-Logo" fill-rule="nonzero" fill="#131014">
            <g id="nbhoodie_logo">
                <g id="svg-nh-logo">
                    <polygon id="Shape" points="10.3841584 13.1368421 2.45940594 4.78947368 2.45940594 12.9315789 0.341584158 12.9315789 0.341584158 0.0684210526 0.683168317 0 8.47128713 8.21052632 8.47128713 0.205263158 10.6574257 0.205263158 10.6574257 13.0684211"></polygon>
                    <polygon id="Shape" points="16.1910891 12.9315789 16.1910891 0.205263158 23.9108911 0.205263158 23.9108911 2.18947368 18.3772277 2.18947368 18.3772277 5.54210526 23.4326733 5.54210526 23.4326733 7.45789474 18.3772277 7.45789474 18.3772277 10.9473684 23.9108911 10.9473684 23.9108911 12.9315789"></polygon>
                    <polygon id="Shape" points="29.1029703 12.9315789 29.1029703 0.205263158 31.2891089 0.205263158 31.2891089 12.8631579 29.1029703 12.8631579"></polygon>
                    <path d="M46.8653465,6.22631579 L46.8653465,11.7684211 C45.4990099,12.6578947 44.0643564,13.1368421 42.1514851,13.1368421 C38.5306931,13.1368421 35.4564356,10.5368421 35.4564356,6.56842105 C35.4564356,2.6 38.5990099,0 42.1514851,0 C43.9960396,0 45.3623762,0.547368421 46.660396,1.3 L45.7039604,3.01052632 C44.6792079,2.32631579 43.449505,1.98421053 42.2881188,1.98421053 C39.4188119,1.98421053 37.7792079,4.03684211 37.7792079,6.56842105 C37.7792079,9.23684211 39.760396,11.2210526 42.2881188,11.2210526 C43.3811881,11.2210526 44.1326733,11.0157895 44.8158416,10.6052632 L44.8158416,8.14210526 L41.8782178,8.14210526 L41.8782178,6.22631579 C41.8782178,6.22631579 46.8653465,6.22631579 46.8653465,6.22631579 Z" id="Shape"></path>
                    <polygon id="Shape" points="60.050495 12.9315789 60.050495 7.45789474 54.2435644 7.45789474 54.2435644 12.9315789 52.0574257 12.9315789 52.0574257 0.205263158 54.2435644 0.205263158 54.2435644 5.47368421 60.050495 5.47368421 60.050495 0.205263158 62.2366337 0.205263158 62.2366337 12.8631579 60.050495 12.8631579"></polygon>
                    <path d="M71.1861386,13 C70.0930693,13 68.8633663,12.8631579 67.770297,12.7263158 L67.770297,0.342105263 C68.7267327,0.205263158 69.9564356,0.0684210526 71.049505,0.0684210526 C74.3970297,0.0684210526 76.0366337,1.71052632 76.0366337,3.42105263 C76.0366337,4.72105263 75.4217822,5.74736842 73.850495,6.29473684 C75.6950495,6.84210526 76.3782178,7.93684211 76.3782178,9.37368421 C76.309901,11.2894737 74.6019802,13 71.1861386,13 Z M71.3910891,1.98421053 C70.8445545,1.98421053 70.2980198,2.05263158 69.8881188,2.12105263 L69.8881188,5.61052632 C70.229703,5.67894737 70.639604,5.67894737 71.1861386,5.67894737 C73.0306931,5.67894737 73.7821782,4.85789474 73.7821782,3.83157895 C73.7138614,2.73684211 72.9623762,1.98421053 71.3910891,1.98421053 Z M71.1861386,7.18421053 C70.7079208,7.18421053 70.1613861,7.18421053 69.8881188,7.25263158 L69.8881188,11.0842105 C70.2980198,11.1526316 70.8445545,11.1526316 71.4594059,11.1526316 C73.1673267,11.1526316 74.0554455,10.3315789 74.0554455,9.16842105 C73.9871287,8.07368421 73.0306931,7.18421053 71.1861386,7.18421053 Z" id="Shape"></path>
                    <path d="M86.3524752,13.1368421 C82.6633663,13.1368421 79.9990099,10.3315789 79.9990099,6.56842105 C79.9990099,2.80526316 82.8,0 86.4891089,0 C90.1782178,0 92.8425743,2.80526316 92.8425743,6.56842105 C92.8425743,10.3315789 90.0415842,13.1368421 86.3524752,13.1368421 Z M86.4207921,1.98421053 C84.029703,1.98421053 82.3217822,3.96842105 82.3217822,6.63684211 C82.3217822,9.23684211 84.029703,11.2894737 86.4207921,11.2894737 C88.8118812,11.2894737 90.519802,9.30526316 90.519802,6.63684211 C90.519802,3.9 88.880198,1.98421053 86.4207921,1.98421053 Z" id="Shape"></path>
                    <path d="M102.133663,13.1368421 C98.9910891,13.1368421 97.0782178,11.3578947 97.0782178,8.07368421 L97.0782178,0.205263158 L99.2643564,0.205263158 L99.2643564,7.86842105 C99.2643564,10.0578947 100.357426,11.1526316 102.20198,11.1526316 C104.046535,11.1526316 105.071287,10.0578947 105.071287,7.86842105 L105.071287,0.205263158 L107.257426,0.205263158 L107.257426,8.00526316 C107.257426,11.2894737 105.276238,13.1368421 102.133663,13.1368421 Z" id="Shape"></path>
                    <path d="M119.486139,12.9315789 L116.753465,8.34736842 L116.070297,8.34736842 C115.660396,8.34736842 115.250495,8.34736842 114.840594,8.27894737 L114.840594,12.8631579 L112.654455,12.8631579 L112.654455,0.342105263 C113.679208,0.205263158 114.70396,0.136842105 116.00198,0.136842105 C119.622772,0.136842105 121.194059,1.91578947 121.194059,4.10526316 C121.194059,5.74736842 120.305941,7.11578947 118.734653,7.8 L122.082178,12.9315789 L119.486139,12.9315789 Z M116.275248,2.05263158 C115.728713,2.05263158 115.250495,2.05263158 114.840594,2.18947368 L114.840594,6.5 C115.250495,6.56842105 115.660396,6.56842105 116.070297,6.56842105 C117.983168,6.56842105 118.871287,5.67894737 118.871287,4.24210526 C118.871287,2.94210526 117.914851,2.05263158 116.275248,2.05263158 Z" id="Shape"></path>
                    <polygon id="Shape" points="134.310891 12.9315789 134.310891 7.45789474 128.435644 7.45789474 128.435644 12.9315789 126.249505 12.9315789 126.249505 0.205263158 128.435644 0.205263158 128.435644 5.47368421 134.242574 5.47368421 134.242574 0.205263158 136.428713 0.205263158 136.428713 12.8631579 134.310891 12.8631579"></polygon>
                    <path d="M147.359406,13.1368421 C143.670297,13.1368421 141.005941,10.3315789 141.005941,6.56842105 C141.005941,2.80526316 143.806931,0 147.49604,0 C151.185149,0 153.849505,2.80526316 153.849505,6.56842105 C153.849505,10.3315789 151.048515,13.1368421 147.359406,13.1368421 Z M147.427723,1.98421053 C145.036634,1.98421053 143.328713,3.96842105 143.328713,6.63684211 C143.328713,9.23684211 145.036634,11.2894737 147.427723,11.2894737 C149.818812,11.2894737 151.526733,9.30526316 151.526733,6.63684211 C151.526733,3.9 149.818812,1.98421053 147.427723,1.98421053 Z" id="Shape"></path>
                    <path d="M164.165347,13.1368421 C160.476238,13.1368421 157.811881,10.3315789 157.811881,6.56842105 C157.811881,2.80526316 160.612871,0 164.30198,0 C167.991089,0 170.655446,2.80526316 170.655446,6.56842105 C170.587129,10.3315789 167.786139,13.1368421 164.165347,13.1368421 Z M164.233663,1.98421053 C161.842574,1.98421053 160.134653,3.96842105 160.134653,6.63684211 C160.134653,9.23684211 161.842574,11.2894737 164.233663,11.2894737 C166.624752,11.2894737 168.332673,9.30526316 168.332673,6.63684211 C168.332673,3.9 166.624752,1.98421053 164.233663,1.98421053 Z" id="Shape"></path>
                    <path d="M179.19505,13 C177.828713,13 176.80396,12.9315789 175.574257,12.7947368 L175.574257,0.342105263 C176.80396,0.205263158 177.828713,0.136842105 179.126733,0.136842105 C184.113861,0.136842105 186.641584,3.01052632 186.641584,6.43157895 C186.573267,9.98947368 184.250495,13 179.19505,13 Z M179.331683,2.05263158 C178.716832,2.05263158 178.170297,2.12105263 177.692079,2.18947368 L177.692079,11.0157895 C178.238614,11.0842105 178.648515,11.1526316 179.536634,11.1526316 C182.815842,11.1526316 184.250495,9.16842105 184.250495,6.5 C184.250495,3.83157895 182.610891,2.05263158 179.331683,2.05263158 Z" id="Shape"></path>
                    <polygon id="Shape" points="191.560396 12.9315789 191.560396 0.205263158 193.746535 0.205263158 193.746535 12.8631579 191.560396 12.8631579"></polygon>
                    <polygon id="Shape" points="199.280198 12.9315789 199.280198 0.205263158 207 0.205263158 207 2.18947368 201.466337 2.18947368 201.466337 5.54210526 206.521782 5.54210526 206.521782 7.45789474 201.466337 7.45789474 201.466337 10.9473684 207 10.9473684 207 12.9315789"></polygon>
                    <path d="M101.655446,38.3157895 C100.220792,38.3157895 98.7861386,37.7684211 97.6930693,37.0842105 L98.4445545,35.1684211 C99.4693069,35.9210526 100.630693,36.3315789 101.723762,36.3315789 C103.021782,36.3315789 103.636634,35.5789474 103.636634,34.6894737 C103.636634,33.8 103.226733,33.2526316 101.245545,32.4315789 C99.0594059,31.4736842 98.239604,30.3789474 98.239604,28.8052632 C98.239604,26.9578947 99.7425743,25.2473684 102.406931,25.2473684 C103.636634,25.2473684 104.866337,25.6578947 105.617822,26.1368421 L104.934653,28.0526316 C104.251485,27.5736842 103.226733,27.1631579 102.406931,27.1631579 C101.108911,27.1631579 100.425743,27.9157895 100.425743,28.7368421 C100.425743,29.5578947 101.040594,30.1052632 102.611881,30.7894737 C105.139604,31.8842105 105.822772,32.9105263 105.822772,34.5526316 C105.891089,36.5368421 104.319802,38.3157895 101.655446,38.3157895 Z" id="Shape"></path>
                    <path d="M116.206931,38.3157895 C112.517822,38.3157895 109.853465,35.5105263 109.853465,31.7473684 C109.853465,27.9842105 112.654455,25.1789474 116.343564,25.1789474 C120.032673,25.1789474 122.69703,27.9842105 122.69703,31.7473684 C122.628713,35.5105263 119.827723,38.3157895 116.206931,38.3157895 Z M116.275248,27.1631579 C113.884158,27.1631579 112.176238,29.1473684 112.176238,31.8157895 C112.176238,34.4157895 113.884158,36.4684211 116.275248,36.4684211 C118.666337,36.4684211 120.374257,34.4842105 120.374257,31.8157895 C120.305941,29.0789474 118.666337,27.1631579 116.275248,27.1631579 Z" id="Shape"></path>
                    <polygon id="Shape" points="129.59703 27.3684211 129.59703 31.0631579 134.515842 31.0631579 134.515842 32.9789474 129.59703 32.9789474 129.59703 38.0421053 127.410891 38.0421053 127.410891 25.3842105 135.130693 25.3842105 135.130693 27.3684211"></polygon>
                    <polygon id="Shape" points="144.490099 27.3684211 144.490099 38.1105263 142.30396 38.1105263 142.30396 27.3684211 138.273267 27.3684211 138.273267 25.3842105 148.452475 25.3842105 148.452475 27.3684211"></polygon>
                    <polygon id="Shape" points="164.233663 38.3157895 163.892079 38.3842105 159.929703 29.5578947 156.035644 38.3157895 155.694059 38.2473684 151.663366 25.3842105 154.054455 25.3842105 156.308911 33.3894737 159.861386 25.3157895 160.134653 25.3157895 163.687129 33.3894737 165.941584 25.4526316 168.264356 25.4526316"></polygon>
                    <path d="M179.536634,38.1105263 L178.306931,35.2368421 L173.319802,35.2368421 L172.090099,38.1105263 L169.835644,38.1105263 L175.710891,25.2473684 L176.052475,25.2473684 L181.859406,38.1105263 L179.536634,38.1105263 Z M175.847525,29.2157895 L174.071287,33.4578947 L177.692079,33.4578947 L175.847525,29.2157895 Z" id="Shape"></path>
                    <path d="M192.653465,38.1105263 L189.920792,33.5263158 L189.237624,33.5263158 C188.827723,33.5263158 188.417822,33.5263158 188.007921,33.4578947 L188.007921,38.0421053 L185.821782,38.0421053 L185.821782,25.5210526 C186.846535,25.3842105 187.871287,25.3157895 189.169307,25.3157895 C192.790099,25.3157895 194.361386,27.0947368 194.361386,29.2842105 C194.361386,30.9263158 193.473267,32.2947368 191.90198,32.9789474 L195.249505,38.1105263 L192.653465,38.1105263 L192.653465,38.1105263 Z M189.442574,27.2315789 C188.89604,27.2315789 188.417822,27.2315789 188.007921,27.3684211 L188.007921,31.6789474 C188.417822,31.7473684 188.827723,31.7473684 189.237624,31.7473684 C191.150495,31.7473684 192.038614,30.8578947 192.038614,29.4210526 C192.038614,28.1210526 191.082178,27.2315789 189.442574,27.2315789 Z" id="Shape"></path>
                    <polygon id="Shape" points="199.280198 38.1105263 199.280198 25.3842105 207 25.3842105 207 27.3684211 201.466337 27.3684211 201.466337 30.7210526 206.521782 30.7210526 206.521782 32.6368421 201.466337 32.6368421 201.466337 36.1263158 207 36.1263158 207 38.1105263 199.280198 38.1105263"></polygon>
                </g>
            </g>
        </g>
    </g>
</svg>
